<svg width="21" height="21" viewBox="0 0 21 21" fill="none" xmlns="http://www.w3.org/2000/svg">
<path d="M0.664662 8.2691C0.345886 7.97463 0.519046 7.44229 0.950217 7.39123L7.0597 6.66738C7.23542 6.64657 7.38806 6.53634 7.46218 6.37583L10.0391 0.795412C10.2209 0.40158 10.7814 0.401504 10.9633 0.795336L13.5402 6.37571C13.6143 6.53622 13.766 6.64675 13.9417 6.66756L20.0515 7.39123C20.4827 7.44229 20.6553 7.97479 20.3366 8.26926L15.8202 12.442C15.6903 12.562 15.6324 12.7407 15.6669 12.914L16.8655 18.9416C16.9502 19.367 16.4969 19.6966 16.1181 19.4848L10.7497 16.4823C10.5953 16.396 10.4077 16.3964 10.2532 16.4827L4.88428 19.484C4.50541 19.6958 4.05135 19.367 4.13597 18.9416L5.3348 12.9144C5.36929 12.741 5.31159 12.562 5.18167 12.442L0.664662 8.2691Z" fill="#FFB23D" stroke="white" stroke-linecap="round" stroke-linejoin="round"/>
</svg>
