<svg width="20" height="20" viewBox="0 0 20 20" fill="none" xmlns="http://www.w3.org/2000/svg">
<g clip-path="url(#clip0_38_4446)">
<path d="M2.46143 4.9231H4.10245H17.2307" stroke="white" stroke-width="2" stroke-linecap="round" stroke-linejoin="round"/>
<path d="M6.56408 4.92316V3.28214C6.56408 2.84691 6.73697 2.42951 7.04472 2.12176C7.35248 1.81401 7.76988 1.64111 8.2051 1.64111H11.4872C11.9224 1.64111 12.3398 1.81401 12.6475 2.12176C12.9553 2.42951 13.1282 2.84691 13.1282 3.28214V4.92316M15.5897 4.92316V16.4103C15.5897 16.8456 15.4168 17.263 15.1091 17.5707C14.8013 17.8785 14.3839 18.0514 13.9487 18.0514H5.74356C5.30834 18.0514 4.89094 17.8785 4.58318 17.5707C4.27543 17.263 4.10254 16.8456 4.10254 16.4103V4.92316H15.5897Z" stroke="white" stroke-width="2" stroke-linecap="round" stroke-linejoin="round"/>
</g>
<defs>
<clipPath id="clip0_38_4446">
<rect width="19.6923" height="19.6923" fill="white"/>
</clipPath>
</defs>
</svg>
